<?xml version="1.0" encoding="UTF-8"?>
<svg xmlns="http://www.w3.org/2000/svg" xmlns:xlink="http://www.w3.org/1999/xlink" width="96pt" height="96pt" viewBox="0 0 96 96" version="1.1">
<g id="surface3594357">
<path style="fill-rule:evenodd;fill:rgb(0%,0%,0%);fill-opacity:1;stroke-width:10;stroke-linecap:butt;stroke-linejoin:round;stroke:rgb(1.176471%,40%,83.921569%);stroke-opacity:1;stroke-miterlimit:10;" d="M 93.169037 14.331852 L 93.169037 78.830963 L 157.668148 78.830963 L 157.668148 93.169037 L 93.169037 93.169037 L 93.169037 157.668148 L 78.830963 157.668148 L 78.830963 93.169037 L 14.331852 93.169037 L 14.331852 78.830963 L 78.830963 78.830963 L 78.830963 14.331852 Z M 93.169037 14.331852 " transform="matrix(0.527442,0,0,0.527442,2.64,2.64)"/>
<path style=" stroke:none;fill-rule:evenodd;fill:rgb(1.176471%,40%,83.921569%);fill-opacity:1;" d="M 44.21875 10.199219 L 44.21875 44.21875 L 10.199219 44.21875 L 10.199219 51.78125 L 44.21875 51.78125 L 44.21875 85.800781 L 51.78125 85.800781 L 51.78125 51.78125 L 85.800781 51.78125 L 85.800781 44.21875 L 51.78125 44.21875 L 51.78125 10.199219 Z M 44.21875 10.199219 "/>
</g>
</svg>
